<?xml version="1.0" encoding="UTF-8"?>
<svg version="1.1" xmlns="http://www.w3.org/2000/svg" width="512" height="512">
<path d="M0 0 C136.29 0 272.58 0 413 0 C413.33 16.83 413.66 33.66 414 51 C416.93451837 59.13399041 416.93451837 59.13399041 423 64 C440.72004515 69.90668172 460.32475625 65.64763691 479 66 C479 142.56 479 219.12 479 298 C320.93 298 162.86 298 0 298 C0 287.11 0 276.22 0 265 C-10.89 265 -21.78 265 -33 265 C-33 242.89 -33 220.78 -33 198 C-22.11 198 -11.22 198 0 198 C0 181.83 0 165.66 0 149 C-10.89 149 -21.78 149 -33 149 C-33 116 -33 83 -33 49 C-22.11 49 -11.22 49 0 49 C0 32.83 0 16.66 0 0 Z M17 17 C17 27.56 17 38.12 17 49 C27.89 49 38.78 49 50 49 C50 82 50 115 50 149 C39.11 149 28.22 149 17 149 C17 165.17 17 181.34 17 198 C27.89 198 38.78 198 50 198 C50 220.11 50 242.22 50 265 C39.11 265 28.22 265 17 265 C17 270.28 17 275.56 17 281 C33.17 281 49.34 281 66 281 C66 270.11 66 259.22 66 248 C71.61 248 77.22 248 83 248 C83 258.89 83 269.78 83 281 C88.28 281 93.56 281 99 281 C99 270.11 99 259.22 99 248 C104.61 248 110.22 248 116 248 C116 258.89 116 269.78 116 281 C121.28 281 126.56 281 132 281 C132 270.11 132 259.22 132 248 C137.61 248 143.22 248 149 248 C149 258.89 149 269.78 149 281 C154.28 281 159.56 281 165 281 C165 270.11 165 259.22 165 248 C170.61 248 176.22 248 182 248 C182 258.89 182 269.78 182 281 C187.28 281 192.56 281 198 281 C198 270.11 198 259.22 198 248 C203.61 248 209.22 248 215 248 C215 258.89 215 269.78 215 281 C225.56 281 236.12 281 247 281 C247 270.11 247 259.22 247 248 C263.83 248 280.66 248 298 248 C298 258.89 298 269.78 298 281 C302.95 281 307.9 281 313 281 C313 270.11 313 259.22 313 248 C329.83 248 346.66 248 364 248 C364 258.89 364 269.78 364 281 C368.95 281 373.9 281 379 281 C379 270.11 379 259.22 379 248 C395.83 248 412.66 248 430 248 C430 258.89 430 269.78 430 281 C440.56 281 451.12 281 462 281 C462 259.55 462 238.1 462 216 C440.22 216 418.44 216 396 216 C396 177.39 396 138.78 396 99 C417.78 99 439.56 99 462 99 C462 93.72 462 88.44 462 83 C460.20767944 82.98598145 460.20767944 82.98598145 458.37915039 82.97167969 C453.9114973 82.93156238 449.44451718 82.86574458 444.97729492 82.79248047 C443.05030007 82.76439628 441.12319271 82.7431198 439.19604492 82.72900391 C436.41266802 82.70739943 433.6306261 82.66066189 430.84765625 82.609375 C429.57209618 82.60753204 429.57209618 82.60753204 428.27076721 82.60565186 C419.75354961 82.40088013 413.46692426 79.48708725 407 74 C406.34 74 405.68 74 405 74 C404.58427734 73.1646875 404.58427734 73.1646875 404.16015625 72.3125 C403.36372379 70.72499827 402.55855278 69.1418596 401.74609375 67.5625 C401.31425781 66.716875 400.88242187 65.87125 400.4375 65 C400.00308594 64.154375 399.56867188 63.30875 399.12109375 62.4375 C397.50911274 58.93270506 396.88203668 55.80961403 396.79467773 51.96582031 C396.77473251 51.18531311 396.75478729 50.40480591 396.73423767 49.60064697 C396.70916893 48.3519986 396.70916893 48.3519986 396.68359375 47.078125 C396.66281265 46.21813904 396.64203156 45.35815308 396.62062073 44.47210693 C396.55536261 41.73148402 396.49635083 38.99076725 396.4375 36.25 C396.39429219 34.3893133 396.35067718 32.52863602 396.30664062 30.66796875 C396.19970558 26.11207477 396.09837149 21.5560866 396 17 C390.72 17 385.44 17 380 17 C380 33.5 380 50 380 67 C319.94 67 259.88 67 198 67 C198 50.5 198 34 198 17 C138.27 17 78.54 17 17 17 Z M215 17 C215 27.56 215 38.12 215 49 C220.28 49 225.56 49 231 49 C231 38.44 231 27.88 231 17 C225.72 17 220.44 17 215 17 Z M248 17 C248 27.56 248 38.12 248 49 C253.28 49 258.56 49 264 49 C264 38.44 264 27.88 264 17 C258.72 17 253.44 17 248 17 Z M281 17 C281 27.56 281 38.12 281 49 C286.28 49 291.56 49 297 49 C297 38.44 297 27.88 297 17 C291.72 17 286.44 17 281 17 Z M314 17 C314 27.56 314 38.12 314 49 C319.28 49 324.56 49 330 49 C330 38.44 330 27.88 330 17 C324.72 17 319.44 17 314 17 Z M347 17 C347 27.56 347 38.12 347 49 C352.28 49 357.56 49 363 49 C363 38.44 363 27.88 363 17 C357.72 17 352.44 17 347 17 Z M-16 67 C-16 88.45 -16 109.9 -16 132 C0.17 132 16.34 132 33 132 C33 110.55 33 89.1 33 67 C16.83 67 0.66 67 -16 67 Z M413 116 C413 121.28 413 126.56 413 132 C429.17 132 445.34 132 462 132 C462 126.72 462 121.44 462 116 C445.83 116 429.66 116 413 116 Z M413 149 C413 154.28 413 159.56 413 165 C429.17 165 445.34 165 462 165 C462 159.72 462 154.44 462 149 C445.83 149 429.66 149 413 149 Z M413 182 C413 187.28 413 192.56 413 198 C429.17 198 445.34 198 462 198 C462 192.72 462 187.44 462 182 C445.83 182 429.66 182 413 182 Z M-16 216 C-16 226.56 -16 237.12 -16 248 C0.17 248 16.34 248 33 248 C33 237.44 33 226.88 33 216 C16.83 216 0.66 216 -16 216 Z M265 265 C265 270.28 265 275.56 265 281 C269.95 281 274.9 281 280 281 C280 275.72 280 270.44 280 265 C275.05 265 270.1 265 265 265 Z M331 265 C331 270.28 331 275.56 331 281 C335.95 281 340.9 281 346 281 C346 275.72 346 270.44 346 265 C341.05 265 336.1 265 331 265 Z M397 265 C397 270.28 397 275.56 397 281 C401.95 281 406.9 281 412 281 C412 275.72 412 270.44 412 265 C407.05 265 402.1 265 397 265 Z " fill="#000000" transform="translate(33,107)"/>
<path d="M0 0 C5.94 0 11.88 0 18 0 C18 5.61 18 11.22 18 17 C22.95 17 27.9 17 33 17 C33 11.39 33 5.78 33 0 C38.94 0 44.88 0 51 0 C51 5.61 51 11.22 51 17 C55.95 17 60.9 17 66 17 C66 11.39 66 5.78 66 0 C71.94 0 77.88 0 84 0 C84 5.61 84 11.22 84 17 C88.95 17 93.9 17 99 17 C99 11.39 99 5.78 99 0 C104.94 0 110.88 0 117 0 C117 5.61 117 11.22 117 17 C121.95 17 126.9 17 132 17 C132 11.39 132 5.78 132 0 C137.94 0 143.88 0 150 0 C150 5.61 150 11.22 150 17 C152.64 17.33 155.28 17.66 158 18 C162.33937852 20.60362711 164.13941499 23.34543379 166 28 C166.43628733 31.32402992 166.44440387 34.61565396 166.43359375 37.96484375 C166.4388356 38.91637833 166.44407745 39.8679129 166.44947815 40.84828186 C166.45588251 42.85449246 166.45458195 44.8607407 166.44604492 46.86694336 C166.43753659 49.92435039 166.46631611 52.97988671 166.49804688 56.03710938 C166.49965921 57.99218694 166.49908074 59.9472678 166.49609375 61.90234375 C166.50732773 62.80983871 166.51856171 63.71733368 166.53013611 64.65232849 C166.46514142 70.61778043 165.47554273 74.11307337 162 79 C157.46957177 82.84101524 156.23868976 83 150 83 C150 88.61 150 94.22 150 100 C144.06 100 138.12 100 132 100 C132 94.72 132 89.44 132 84 C127.05 84 122.1 84 117 84 C117 89.28 117 94.56 117 100 C111.06 100 105.12 100 99 100 C99 94.72 99 89.44 99 84 C94.05 84 89.1 84 84 84 C84 89.28 84 94.56 84 100 C78.06 100 72.12 100 66 100 C66 94.72 66 89.44 66 84 C61.05 84 56.1 84 51 84 C51 89.28 51 94.56 51 100 C45.06 100 39.12 100 33 100 C33 94.72 33 89.44 33 84 C28.05 84 23.1 84 18 84 C18 89.28 18 94.56 18 100 C12.06 100 6.12 100 0 100 C0 94.39 0 88.78 0 83 C-2.64 82.67 -5.28 82.34 -8 82 C-11.92352933 78.86117654 -15.58086819 75.06032607 -16.28707886 69.90386963 C-16.41357528 67.3090593 -16.44193165 64.73071911 -16.43359375 62.1328125 C-16.4388356 61.17986298 -16.44407745 60.22691345 -16.44947815 59.24508667 C-16.4558898 57.2328997 -16.45457247 55.22067521 -16.44604492 53.20849609 C-16.43754771 50.14221824 -16.46628792 47.07781212 -16.49804688 44.01171875 C-16.49965945 42.05208389 -16.49908027 40.09244575 -16.49609375 38.1328125 C-16.50732773 37.22218048 -16.51856171 36.31154846 -16.53013611 35.37332153 C-16.46532213 29.40215527 -15.4425693 25.91027183 -12 21 C-8.28369507 17.68276137 -5.01102092 17 0 17 C0 11.39 0 5.78 0 0 Z M1 34 C1 44.56 1 55.12 1 66 C49.84 66 98.68 66 149 66 C149 55.44 149 44.88 149 34 C100.16 34 51.32 34 1 34 Z " fill="#000000" transform="translate(247,239)"/>
<path d="M0 0 C38.28 0 76.56 0 116 0 C116 16.5 116 33 116 50 C77.72 50 39.44 50 0 50 C0 33.5 0 17 0 0 Z M17 17 C17 22.28 17 27.56 17 33 C44.06 33 71.12 33 99 33 C99 27.72 99 22.44 99 17 C71.94 17 44.88 17 17 17 Z " fill="#000000" transform="translate(99,206)"/>
<path d="M0 0 C38.28 0 76.56 0 116 0 C116 16.5 116 33 116 50 C77.72 50 39.44 50 0 50 C0 33.5 0 17 0 0 Z M17 17 C17 22.28 17 27.56 17 33 C44.06 33 71.12 33 99 33 C99 27.72 99 22.44 99 17 C71.94 17 44.88 17 17 17 Z " fill="#000000" transform="translate(99,140)"/>
<path d="M0 0 C4.05629971 1.55641504 5.98955324 4.26838886 8.74250793 7.54121399 C12.97109247 12.05931152 16.11541586 13.80785437 22.47294617 14.36076355 C25.35980512 14.4487072 28.23288372 14.40159623 31.11987305 14.34057617 C32.71756123 14.34734879 34.31523504 14.35895961 35.91285706 14.375 C40.2189374 14.40469786 44.52205398 14.36732675 48.82784629 14.31726241 C53.33889459 14.27642967 57.84964762 14.29816465 62.36079407 14.31306458 C70.88906273 14.33182748 79.41612994 14.29489106 87.94418985 14.23759204 C97.6589403 14.17505784 107.37338084 14.17514876 117.08829439 14.18031728 C137.05931841 14.18954873 157.02936052 14.11850836 177 14 C177 19.61 177 25.22 177 31 C155.14636862 31.41798778 133.29371083 31.73855484 111.4368763 31.93261909 C101.28644243 32.0251533 91.13854852 32.15112308 80.98974609 32.35791016 C72.13621086 32.53821836 63.28451568 32.65365252 54.42919528 32.69359291 C49.74595954 32.71691897 45.06798375 32.77106699 40.38644791 32.90314102 C8.14000167 33.77921749 8.14000167 33.77921749 -2.07266426 24.43702507 C-5.40407874 20.84395449 -8.36806492 17.13359883 -11 13 C-9.30413874 9.36696916 -7.26199512 7.05450954 -4.375 4.25 C-3.55773437 3.45078125 -2.74046875 2.6515625 -1.8984375 1.828125 C-0.95871094 0.92320312 -0.95871094 0.92320312 0 0 Z " fill="#000000" transform="translate(236,184)"/>
<path d="M0 0 C2.95306523 2.09444291 5.4941031 4.39291486 8 7 C9.11375 8.1446875 9.11375 8.1446875 10.25 9.3125 C16.17993386 18.41918414 17.08517442 27.38940568 16 38 C15.1151091 41.36921026 13.85222667 44.06324588 12 47 C11.649375 47.62132812 11.29875 48.24265625 10.9375 48.8828125 C6.58556618 55.86403966 -0.76001543 60.24704641 -8.55078125 62.53125 C-18.91117459 64.5141004 -27.7879519 62.75605692 -36.6875 57.3125 C-44.39239653 51.86663072 -48.67785646 44.63121604 -50.50390625 35.47265625 C-51.78633868 26.06365197 -50.03445442 17.62815372 -44.875 9.625 C-34.12145705 -4.44949004 -15.63372289 -8.21310788 0 0 Z M-29.75 20 C-33.09771587 24.46362116 -33.7036604 28.53155346 -33 34 C-31.58188467 38.23726027 -29.42760555 41.03104359 -25.625 43.375 C-20.65578902 45.60257734 -17.25564284 46.60561385 -12 45 C-7.49517549 43.13235682 -4.64911241 40.03325073 -2 36 C-0.44582381 31.33747142 -0.45551198 27.51246673 -2.125 22.875 C-4.69321077 18.93707682 -7.74225165 16.12887417 -12 14 C-19.75627802 13.28614786 -24.49755841 14.01846596 -29.75 20 Z " fill="#000000" transform="translate(174,276)"/>
</svg>
