<?xml version="1.0" encoding="UTF-8"?>
<svg version="1.1" xmlns="http://www.w3.org/2000/svg" width="512" height="512">
<path d="M0 0 C0.64490991 -0.00205263 1.28981982 -0.00410527 1.95427245 -0.0062201 C4.11209406 -0.0118679 6.26985139 -0.01043561 8.42767906 -0.00901413 C9.99172996 -0.01159904 11.5557802 -0.01461255 13.11982954 -0.01801753 C17.41570744 -0.026076 21.71156863 -0.02787646 26.0074532 -0.028615 C30.64157194 -0.03046756 35.27568203 -0.03801594 39.90979576 -0.04475021 C50.04215326 -0.05832595 60.17450681 -0.0643571 70.30687189 -0.06876087 C76.63518069 -0.07152462 82.96348796 -0.07576223 89.29179573 -0.08026505 C106.81760182 -0.09245681 124.34340668 -0.10275625 141.86921692 -0.10614014 C143.55141113 -0.10646949 143.55141113 -0.10646949 145.26758906 -0.10680549 C146.95377824 -0.10713291 146.95377824 -0.10713291 148.67403185 -0.10746694 C150.95188944 -0.1079104 153.22974702 -0.10835696 155.5076046 -0.10880661 C156.63749748 -0.10902804 157.76739036 -0.10924947 158.93152241 -0.10947761 C177.23625551 -0.11342489 195.54094877 -0.13087721 213.84566648 -0.15416613 C232.64480226 -0.17789077 251.44391806 -0.1903425 270.24306905 -0.19150805 C280.79567215 -0.1924242 291.34822336 -0.19816124 301.90081215 -0.21632767 C310.88729893 -0.23174366 319.87371777 -0.23684027 328.86021526 -0.22858956 C333.44294779 -0.22468836 338.02554358 -0.22558677 342.6082592 -0.23964691 C346.8091875 -0.25241751 351.00987675 -0.25116071 355.21080486 -0.2390562 C356.7249632 -0.23710466 358.23913865 -0.24015237 359.75327297 -0.24890056 C378.36821298 -0.34958304 394.31695611 4.20662835 407.95828819 17.46736526 C418.52147029 29.18133305 423.51078634 42.70374003 423.50780296 58.24335098 C423.51147965 59.27088393 423.51515634 60.29841688 423.51894444 61.35708719 C423.52997016 64.80522856 423.53382329 68.25333978 423.5376339 71.70149612 C423.54389949 74.1720985 423.55054637 76.64269992 423.55754662 79.11330032 C423.57676505 86.53144473 423.58737449 93.94958112 423.59627441 101.3677431 C423.60066291 104.86607043 423.60602833 108.36439626 423.61126328 111.8627224 C423.62827423 123.50115361 423.64276597 135.1395839 423.65001202 146.77802563 C423.65192174 149.79629836 423.65384209 152.81457108 423.65579796 155.83284378 C423.6562817 156.58296946 423.65676544 157.33309515 423.65726384 158.10595191 C423.66555506 170.24359339 423.69087717 182.38113602 423.72337864 194.51873439 C423.75651705 206.99655918 423.77446697 219.47433386 423.77765626 231.95220286 C423.77981532 238.95135254 423.7884747 245.95035817 423.81411743 252.9494648 C423.8382069 259.53963729 423.84160771 266.12959823 423.83135605 272.71982193 C423.83086197 275.13117776 423.83714438 277.54254657 423.85091209 279.95386314 C423.96475961 301.08556391 421.62060411 316.90271789 406.64578819 332.87752151 C392.77679841 346.55684989 376.74383813 349.60132361 357.95560265 349.47200394 C356.22001218 349.47115628 354.48442064 349.4716355 352.7488308 349.47333145 C348.06771747 349.47418743 343.38683771 349.4566264 338.70577836 349.43560958 C333.80242698 349.41677617 328.89906945 349.41508711 323.99568748 349.41153336 C314.72410229 349.40223239 305.45262401 349.37764513 296.18108577 349.34748489 C285.61998262 349.31388003 275.0588742 349.2974396 264.49773085 349.28239858 C242.7853034 349.25109374 221.0729782 349.19776259 199.36063194 349.13142776 C199.36063194 358.37142776 199.36063194 367.61142776 199.36063194 377.13142776 C203.04477257 377.09662308 206.72891319 377.06181839 210.52469444 377.02595901 C214.09906807 377.00255219 217.67343311 376.98434195 221.24783897 376.96663284 C223.72899774 376.95156114 226.21012994 376.93110031 228.69119835 376.90510941 C232.26076384 376.86865609 235.82997656 376.85168484 239.39969444 376.83845901 C240.50616325 376.82297516 241.61263206 376.8074913 242.75263023 376.79153824 C250.09116141 376.7899403 254.54266105 377.62656475 260.17313194 382.63142776 C263.88655781 386.87534304 263.7087835 390.92795216 263.63016319 396.33845901 C263.20509534 400.74314758 262.18394621 402.67286778 259.36063194 406.13142776 C254.10284867 409.69668255 249.23673439 410.73033049 242.98953819 410.74080276 C242.15464867 410.75756561 241.31975914 410.77432846 240.45956993 410.79159927 C237.61399262 410.84206652 234.76908445 410.86263459 231.92313194 410.88142776 C229.86216828 410.90692666 227.80121463 410.93324485 225.74027061 410.96028519 C220.21292813 411.02443947 214.68571152 411.06198227 209.15808201 411.09105396 C203.25086136 411.12321263 197.34387625 411.17331664 191.43680382 411.22566605 C181.38527582 411.31323763 171.33379955 411.3715048 161.28198814 411.41450882 C157.20826836 411.43235662 153.13472735 411.4585352 149.06110191 411.49141312 C144.18952063 411.52969994 139.3182579 411.54761995 134.4465313 411.55063057 C132.62602071 411.55497941 130.80551216 411.56621896 128.98509026 411.58470726 C126.46773396 411.60901868 123.95155583 411.60826045 121.43411827 411.60139847 C120.70035752 411.6142123 119.96659678 411.62702614 119.21060085 411.64022827 C114.12244873 411.58871185 111.29562542 410.29698691 107.36063194 407.13142776 C103.73229531 403.31212604 103.05062736 400.2486377 102.86063194 395.13142776 C103.05062736 390.01421783 103.73229531 386.95072949 107.36063194 383.13142776 C112.60843054 379.00018206 116.87144894 378.00096476 123.42630577 378.01790237 C124.40694496 378.01797791 125.38758415 378.01805344 126.39793968 378.01813126 C127.96695282 378.02587318 127.96695282 378.02587318 129.56766319 378.03377151 C130.64819466 378.03518646 131.72872612 378.03660141 132.84200096 378.03805923 C136.28573971 378.04364697 139.72941292 378.05619727 143.17313194 378.06892776 C145.51102163 378.07394435 147.84891233 378.07850698 150.18680382 378.08259964 C155.91145862 378.09276055 161.63597211 378.1123385 167.36063194 378.13142776 C167.36063194 368.56142776 167.36063194 358.99142776 167.36063194 349.13142776 C164.09652176 349.14475143 164.09652176 349.14475143 160.76646996 349.15834427 C140.24152797 349.24019767 119.71660758 349.2996641 99.19153881 349.33867645 C88.63984593 349.359267 78.08827312 349.38732035 67.53665733 349.43318558 C58.33563153 349.47316093 49.13469273 349.49888605 39.93358248 349.50778174 C35.0654804 349.51297841 30.19762713 349.52511885 25.3296051 349.55434799 C20.73887354 349.58168644 16.14849109 349.58983586 11.55768585 349.58385849 C9.88122975 349.58495054 8.20476084 349.59279397 6.52837563 349.60824966 C-11.95543652 349.77017095 -27.43922621 345.18799769 -40.87374306 332.01814651 C-49.55468136 322.95711063 -56.74335161 310.60843428 -56.77358913 297.70873737 C-56.77804698 296.82400779 -56.78250482 295.9392782 -56.78709775 295.02773863 C-56.78691339 294.05995669 -56.78672903 293.09217474 -56.78653908 292.09506607 C-56.79021577 291.06359843 -56.79389245 290.03213078 -56.79768056 288.96940655 C-56.80872168 285.50200562 -56.81256202 282.03463466 -56.81637001 278.56721878 C-56.82263446 276.0852893 -56.82928124 273.60336077 -56.83628273 271.12143326 C-56.85551403 263.6643148 -56.86611285 256.20720431 -56.87501052 248.75006834 C-56.87939706 245.23467461 -56.88476304 241.71928239 -56.88999939 238.20388985 C-56.90701249 226.51059564 -56.9215043 214.81730237 -56.92874813 203.12399769 C-56.9306579 200.09042294 -56.93257825 197.05684819 -56.93453407 194.02327347 C-56.93501781 193.26932936 -56.93550155 192.51538525 -56.93599995 191.73859435 C-56.94429139 179.53878197 -56.96961292 167.33906793 -57.00211475 155.13929845 C-57.03524315 142.60161949 -57.05320222 130.0639904 -57.05639237 117.52626747 C-57.05855246 110.49192358 -57.0672269 103.45772296 -57.09285355 96.42342186 C-57.11692643 89.80043493 -57.12035003 83.17765856 -57.11009216 76.55462074 C-57.1095977 74.12994531 -57.11589151 71.70525703 -57.12964821 69.28062057 C-57.24308854 48.09285696 -54.5693503 31.60153602 -39.33468056 15.63924026 C-28.58832766 5.64045974 -14.64740182 0.01593792 0 0 Z M-18.63936806 42.13142776 C-24.03685964 50.73230867 -24.79064783 58.7811688 -24.77308083 68.72026443 C-24.77534638 69.66727946 -24.77761194 70.61429449 -24.77994615 71.59000695 C-24.78626049 74.75340322 -24.78545844 77.91675637 -24.78463173 81.08015823 C-24.78762479 83.35227387 -24.79102766 85.62438899 -24.79480934 87.89650345 C-24.80363789 94.06178858 -24.80598696 100.22705983 -24.80662513 106.39235067 C-24.8073362 110.24535103 -24.80947161 114.09834787 -24.81212234 117.95134735 C-24.82089436 130.70270903 -24.82554253 143.45405915 -24.82479187 156.2054231 C-24.82475191 156.89208374 -24.82471196 157.57874438 -24.82467079 158.28621292 C-24.82462991 158.97371624 -24.82458903 159.66121957 -24.82454691 160.36955632 C-24.82414046 171.51133734 -24.8337112 182.65308457 -24.84780916 193.79485582 C-24.86218601 205.24780083 -24.86889565 216.70072253 -24.86821538 228.15367806 C-24.86796052 234.57858743 -24.87080545 241.00345854 -24.88139343 247.42835999 C-24.89107995 253.47105652 -24.89114974 259.51367823 -24.8838768 265.55637741 C-24.8828317 267.77148294 -24.88518941 269.98659315 -24.89123726 272.20169067 C-24.89897053 275.23075604 -24.89430345 278.25956387 -24.88660622 281.28862381 C-24.89174978 282.1603334 -24.89689334 283.032043 -24.90219277 283.93016803 C-24.85102623 293.07302363 -23.55788164 301.93150668 -17.06905556 308.79158401 C-8.59105333 316.52823627 -0.68400447 316.56905138 10.40953636 316.52583694 C11.95938025 316.53072811 13.5092205 316.53691897 15.05905455 316.54429483 C19.31097967 316.56068899 23.5627193 316.5583775 27.81466496 316.55291986 C32.40307458 316.55024901 36.99143482 316.56478254 41.57982445 316.57701492 C50.56659806 316.59806904 59.55330716 316.60260977 68.54010252 316.60082704 C75.84535031 316.59951936 83.15057798 316.60332387 90.45582199 316.61075211 C92.56019439 316.61285131 94.66456679 316.61494891 96.7689392 316.61704493 C97.816353 316.61808845 98.8637668 316.61913198 99.94292041 316.62020713 C119.75244653 316.63910957 139.56193562 316.63805934 159.37146702 316.6312378 C177.48999815 316.62566284 195.60838787 316.64648582 213.72688595 316.67959827 C232.33395222 316.71333947 250.94095076 316.72850303 269.5480482 316.72388124 C279.99329148 316.72163693 290.43840407 316.72687419 300.88362122 316.75177383 C309.77649617 316.77279252 318.66916877 316.77637332 327.56205205 316.75747424 C332.09804694 316.74831978 336.6336646 316.74716443 341.16963005 316.7678299 C345.32554435 316.78655422 349.48077283 316.78202045 353.63666113 316.75928408 C355.13662091 316.75510196 356.63663341 316.75928538 358.13653741 316.77288002 C369.02969128 316.86485442 377.25133414 315.35441673 385.29813194 307.56892776 C393.6822386 296.8602438 391.78108578 281.44939312 391.7329464 268.63093948 C391.73537744 266.35970773 391.73909978 264.08847705 391.74400902 261.8172493 C391.75337772 255.67693074 391.74402694 249.53677271 391.73067689 243.39646673 C391.7193219 236.95762593 391.72347296 230.51879256 391.72542381 224.07994461 C391.72630538 213.27139187 391.71532553 202.46291152 391.69681358 191.65437698 C391.67780384 180.55214414 391.67072933 169.44998432 391.67630577 158.34773636 C391.68302128 144.9381937 391.67970343 131.52870505 391.667202 118.11916351 C391.66256643 113.00856934 391.66167763 107.89799499 391.66378784 102.78739929 C391.66567578 96.76760099 391.6575279 90.74789594 391.64172745 84.7281189 C391.63749664 82.52310955 391.63662591 80.31809071 391.63941765 78.11307907 C391.64265766 75.09556501 391.633512 72.07832637 391.62132835 69.06084061 C391.62510768 68.19545445 391.628887 67.3300683 391.63278085 66.43845832 C391.5612344 56.37103574 390.07157424 47.90199253 383.36063194 40.13142776 C377.63791693 34.85881393 371.58845374 32.88386994 363.80658817 32.87415886 C362.49740223 32.86770997 361.18821628 32.86126107 359.83935803 32.85461676 C358.39329851 32.85755881 356.94723938 32.86069423 355.50118065 32.86400223 C353.95973895 32.86026482 352.41829915 32.85566294 350.87686235 32.85027158 C346.64358361 32.83803738 342.41038387 32.83830254 338.17709148 32.84066033 C333.61050757 32.84106839 329.04394903 32.83003042 324.47737694 32.8205452 C315.53158622 32.80393204 306.58582185 32.79843551 297.640017 32.79732044 C290.36858906 32.79637014 283.09716982 32.79226075 275.82574463 32.78591919 C255.21054445 32.76830612 234.5953651 32.75908045 213.98015734 32.76058014 C212.31308821 32.76070001 212.31308821 32.76070001 210.61234093 32.7608223 C209.49960481 32.76090406 208.38686868 32.76098582 207.24041329 32.76107006 C189.20523013 32.76188303 171.17013047 32.74274262 153.13497146 32.71454556 C134.61721889 32.6858224 116.09950704 32.67200495 97.58173162 32.67373312 C87.18514722 32.6743972 76.78865037 32.66889675 66.39208603 32.64737701 C57.54053956 32.62917273 48.68912032 32.62481173 39.83756324 32.63839586 C35.32199832 32.64492923 30.80667754 32.64502941 26.29113579 32.62768936 C22.15505947 32.61196993 18.0194211 32.61481058 13.88335554 32.63225763 C12.38943922 32.63533001 10.8954903 32.63168607 9.40161242 32.62053747 C-1.77063388 32.54270195 -10.62489466 33.75266013 -18.63936806 42.13142776 Z " fill="#000000" transform="translate(72.63936805725098,41.86857223510742)"/>
</svg>
