<?xml version="1.0" encoding="UTF-8"?>
<svg version="1.1" xmlns="http://www.w3.org/2000/svg" width="512" height="512">
<path d="M0 0 C4.96519463 2.30526893 7.39089701 5.24073974 10 10 C10.51769038 12.98030847 10.46847054 15.88103031 10.390625 18.8984375 C10.38496521 19.73339752 10.37930542 20.56835754 10.37347412 21.42861938 C10.35120223 24.07801266 10.30102523 26.72602016 10.25 29.375 C10.22992302 31.17836579 10.21167435 32.98175292 10.1953125 34.78515625 C10.15477982 39.19105886 10.07647846 43.59399076 10 48 C20.56 48 31.12 48 42 48 C41.95359375 45.32648438 41.9071875 42.65296875 41.859375 39.8984375 C41.82814259 37.29705705 41.80387586 34.69569783 41.78027344 32.09423828 C41.76020967 30.29205919 41.73295187 28.48994479 41.69824219 26.68798828 C41.64949171 24.09130864 41.62697918 21.49549271 41.609375 18.8984375 C41.58872986 18.0982016 41.56808472 17.2979657 41.54681396 16.47348022 C41.54470295 11.16083853 42.51659669 8.23577375 46 4 C49.81930172 0.37166337 52.88279006 -0.31000458 58 -0.5 C63.11720994 -0.31000458 66.18069828 0.37166337 70 4 C74.15829141 9.05642901 74.55215211 12.63741019 74.390625 18.8984375 C74.38496521 19.73339752 74.37930542 20.56835754 74.37347412 21.42861938 C74.35120223 24.07801266 74.30102523 26.72602016 74.25 29.375 C74.22992302 31.17836579 74.21167435 32.98175292 74.1953125 34.78515625 C74.15477982 39.19105886 74.07647846 43.59399076 74 48 C84.56 48 95.12 48 106 48 C105.95359375 45.32648438 105.9071875 42.65296875 105.859375 39.8984375 C105.82814259 37.29705705 105.80387586 34.69569783 105.78027344 32.09423828 C105.76020967 30.29205919 105.73295187 28.48994479 105.69824219 26.68798828 C105.64949171 24.09130864 105.62697918 21.49549271 105.609375 18.8984375 C105.58872986 18.0982016 105.56808472 17.2979657 105.54681396 16.47348022 C105.54470295 11.16083853 106.51659669 8.23577375 110 4 C113.81930172 0.37166337 116.88279006 -0.31000458 122 -0.5 C127.11720994 -0.31000458 130.18069828 0.37166337 134 4 C138.15829141 9.05642901 138.55215211 12.63741019 138.390625 18.8984375 C138.38496521 19.73339752 138.37930542 20.56835754 138.37347412 21.42861938 C138.35120223 24.07801266 138.30102523 26.72602016 138.25 29.375 C138.22992302 31.17836579 138.21167435 32.98175292 138.1953125 34.78515625 C138.15477982 39.19105886 138.07647846 43.59399076 138 48 C148.56 48 159.12 48 170 48 C169.95359375 45.32648438 169.9071875 42.65296875 169.859375 39.8984375 C169.82814259 37.29705705 169.80387586 34.69569783 169.78027344 32.09423828 C169.76020967 30.29205919 169.73295187 28.48994479 169.69824219 26.68798828 C169.64949171 24.09130864 169.62697918 21.49549271 169.609375 18.8984375 C169.58872986 18.0982016 169.56808472 17.2979657 169.54681396 16.47348022 C169.54470295 11.16083853 170.51659669 8.23577375 174 4 C177.81930172 0.37166337 180.88279006 -0.31000458 186 -0.5 C191.11720994 -0.31000458 194.18069828 0.37166337 198 4 C202.15829141 9.05642901 202.55215211 12.63741019 202.390625 18.8984375 C202.38496521 19.73339752 202.37930542 20.56835754 202.37347412 21.42861938 C202.35120223 24.07801266 202.30102523 26.72602016 202.25 29.375 C202.22992302 31.17836579 202.21167435 32.98175292 202.1953125 34.78515625 C202.15136786 39.19063269 202.08240601 43.59508194 202 48 C202.7727124 47.97607178 203.5454248 47.95214355 204.34155273 47.92749023 C222.0569803 47.61077607 235.89905709 54.60030198 248.71875 66.62890625 C258.86077224 77.17035745 266.13916863 91.50046082 266.0390625 106.24609375 C266.03342285 107.32431396 266.0277832 108.40253418 266.02197266 109.51342773 C266.01472168 110.33399658 266.0074707 111.15456543 266 112 C267.11971191 111.97905273 268.23942383 111.95810547 269.39306641 111.93652344 C273.56383377 111.86389574 277.73454568 111.81811789 281.90576172 111.78027344 C283.70794081 111.76020967 285.51005521 111.73295187 287.31201172 111.69824219 C289.90869136 111.64949171 292.50450729 111.62697918 295.1015625 111.609375 C295.9017984 111.58872986 296.7020343 111.56808472 297.52651978 111.54681396 C302.83916147 111.54470295 305.76422625 112.51659669 310 116 C313.62833663 119.81930172 314.31000458 122.88279006 314.5 128 C314.31000458 133.11720994 313.62833663 136.18069828 310 140 C304.94357099 144.15829141 301.36258981 144.55215211 295.1015625 144.390625 C294.26660248 144.38496521 293.43164246 144.37930542 292.57138062 144.37347412 C289.92198734 144.35120223 287.27397984 144.30102523 284.625 144.25 C282.82163421 144.22992302 281.01824708 144.21167435 279.21484375 144.1953125 C274.80894114 144.15477982 270.40600924 144.07647846 266 144 C266 154.56 266 165.12 266 176 C268.67351562 175.95359375 271.34703125 175.9071875 274.1015625 175.859375 C276.70294295 175.82814259 279.30430217 175.80387586 281.90576172 175.78027344 C283.70794081 175.76020967 285.51005521 175.73295187 287.31201172 175.69824219 C289.90869136 175.64949171 292.50450729 175.62697918 295.1015625 175.609375 C295.9017984 175.58872986 296.7020343 175.56808472 297.52651978 175.54681396 C302.83916147 175.54470295 305.76422625 176.51659669 310 180 C313.62833663 183.81930172 314.31000458 186.88279006 314.5 192 C314.31000458 197.11720994 313.62833663 200.18069828 310 204 C304.94357099 208.15829141 301.36258981 208.55215211 295.1015625 208.390625 C294.26660248 208.38496521 293.43164246 208.37930542 292.57138062 208.37347412 C289.92198734 208.35120223 287.27397984 208.30102523 284.625 208.25 C282.82163421 208.22992302 281.01824708 208.21167435 279.21484375 208.1953125 C274.80894114 208.15477982 270.40600924 208.07647846 266 208 C266 218.56 266 229.12 266 240 C268.67351562 239.95359375 271.34703125 239.9071875 274.1015625 239.859375 C276.70294295 239.82814259 279.30430217 239.80387586 281.90576172 239.78027344 C283.70794081 239.76020967 285.51005521 239.73295187 287.31201172 239.69824219 C289.90869136 239.64949171 292.50450729 239.62697918 295.1015625 239.609375 C295.9017984 239.58872986 296.7020343 239.56808472 297.52651978 239.54681396 C302.83916147 239.54470295 305.76422625 240.51659669 310 244 C313.62833663 247.81930172 314.31000458 250.88279006 314.5 256 C314.31000458 261.11720994 313.62833663 264.18069828 310 268 C304.94357099 272.15829141 301.36258981 272.55215211 295.1015625 272.390625 C294.26660248 272.38496521 293.43164246 272.37930542 292.57138062 272.37347412 C289.92198734 272.35120223 287.27397984 272.30102523 284.625 272.25 C282.82163421 272.22992302 281.01824708 272.21167435 279.21484375 272.1953125 C274.80894114 272.15477982 270.40600924 272.07647846 266 272 C266 282.56 266 293.12 266 304 C270.01027344 303.93039062 270.01027344 303.93039062 274.1015625 303.859375 C276.70294295 303.82814259 279.30430217 303.80387586 281.90576172 303.78027344 C283.70794081 303.76020967 285.51005521 303.73295187 287.31201172 303.69824219 C289.90869136 303.64949171 292.50450729 303.62697918 295.1015625 303.609375 C295.9017984 303.58872986 296.7020343 303.56808472 297.52651978 303.54681396 C302.83916147 303.54470295 305.76422625 304.51659669 310 308 C313.62833663 311.81930172 314.31000458 314.88279006 314.5 320 C314.31000458 325.11720994 313.62833663 328.18069828 310 332 C304.94357099 336.15829141 301.36258981 336.55215211 295.1015625 336.390625 C294.26660248 336.38496521 293.43164246 336.37930542 292.57138062 336.37347412 C289.92198734 336.35120223 287.27397984 336.30102523 284.625 336.25 C282.82163421 336.22992302 281.01824708 336.21167435 279.21484375 336.1953125 C274.80936731 336.15136786 270.40491806 336.08240601 266 336 C266.01812744 336.79156494 266.03625488 337.58312988 266.05493164 338.39868164 C266.2781445 355.11158522 259.7478795 369.72915753 248.32983398 381.88720703 C238.67904888 391.62803339 224.13028561 399.73740318 210.15429688 400.06713867 C209.18556641 400.0591626 208.21683594 400.05118652 207.21875 400.04296875 C206.23841797 400.03676514 205.25808594 400.03056152 204.24804688 400.02416992 C203.50619141 400.01619385 202.76433594 400.00821777 202 400 C202.0314209 401.67956787 202.0314209 401.67956787 202.06347656 403.39306641 C202.13610426 407.56383377 202.18188211 411.73454568 202.21972656 415.90576172 C202.23979033 417.70794081 202.26704813 419.51005521 202.30175781 421.31201172 C202.35050829 423.90869136 202.37302082 426.50450729 202.390625 429.1015625 C202.41127014 429.9017984 202.43191528 430.7020343 202.45318604 431.52651978 C202.45529705 436.83916147 201.48340331 439.76422625 198 444 C194.18069828 447.62833663 191.11720994 448.31000458 186 448.5 C180.88279006 448.31000458 177.81930172 447.62833663 174 444 C169.84170859 438.94357099 169.44784789 435.36258981 169.609375 429.1015625 C169.61503479 428.26660248 169.62069458 427.43164246 169.62652588 426.57138062 C169.64879777 423.92198734 169.69897477 421.27397984 169.75 418.625 C169.77007698 416.82163421 169.78832565 415.01824708 169.8046875 413.21484375 C169.84522018 408.80894114 169.92352154 404.40600924 170 400 C159.44 400 148.88 400 138 400 C138.04640625 402.67351562 138.0928125 405.34703125 138.140625 408.1015625 C138.17185741 410.70294295 138.19612414 413.30430217 138.21972656 415.90576172 C138.23979033 417.70794081 138.26704813 419.51005521 138.30175781 421.31201172 C138.35050829 423.90869136 138.37302082 426.50450729 138.390625 429.1015625 C138.41127014 429.9017984 138.43191528 430.7020343 138.45318604 431.52651978 C138.45529705 436.83916147 137.48340331 439.76422625 134 444 C130.18069828 447.62833663 127.11720994 448.31000458 122 448.5 C116.88279006 448.31000458 113.81930172 447.62833663 110 444 C105.84170859 438.94357099 105.44784789 435.36258981 105.609375 429.1015625 C105.61503479 428.26660248 105.62069458 427.43164246 105.62652588 426.57138062 C105.64879777 423.92198734 105.69897477 421.27397984 105.75 418.625 C105.77007698 416.82163421 105.78832565 415.01824708 105.8046875 413.21484375 C105.84522018 408.80894114 105.92352154 404.40600924 106 400 C95.44 400 84.88 400 74 400 C74.04640625 402.67351562 74.0928125 405.34703125 74.140625 408.1015625 C74.17185741 410.70294295 74.19612414 413.30430217 74.21972656 415.90576172 C74.23979033 417.70794081 74.26704813 419.51005521 74.30175781 421.31201172 C74.35050829 423.90869136 74.37302082 426.50450729 74.390625 429.1015625 C74.41127014 429.9017984 74.43191528 430.7020343 74.45318604 431.52651978 C74.45529705 436.83916147 73.48340331 439.76422625 70 444 C66.18069828 447.62833663 63.11720994 448.31000458 58 448.5 C52.88279006 448.31000458 49.81930172 447.62833663 46 444 C41.84170859 438.94357099 41.44784789 435.36258981 41.609375 429.1015625 C41.61503479 428.26660248 41.62069458 427.43164246 41.62652588 426.57138062 C41.64879777 423.92198734 41.69897477 421.27397984 41.75 418.625 C41.77007698 416.82163421 41.78832565 415.01824708 41.8046875 413.21484375 C41.84522018 408.80894114 41.92352154 404.40600924 42 400 C31.44 400 20.88 400 10 400 C10.04640625 402.67351562 10.0928125 405.34703125 10.140625 408.1015625 C10.17185741 410.70294295 10.19612414 413.30430217 10.21972656 415.90576172 C10.23979033 417.70794081 10.26704813 419.51005521 10.30175781 421.31201172 C10.35050829 423.90869136 10.37302082 426.50450729 10.390625 429.1015625 C10.41127014 429.9017984 10.43191528 430.7020343 10.45318604 431.52651978 C10.45529705 436.83916147 9.48340331 439.76422625 6 444 C2.18069828 447.62833663 -0.88279006 448.31000458 -6 448.5 C-11.11720994 448.31000458 -14.18069828 447.62833663 -18 444 C-22.15829141 438.94357099 -22.55215211 435.36258981 -22.390625 429.1015625 C-22.38496521 428.26660248 -22.37930542 427.43164246 -22.37347412 426.57138062 C-22.35120223 423.92198734 -22.30102523 421.27397984 -22.25 418.625 C-22.22992302 416.82163421 -22.21167435 415.01824708 -22.1953125 413.21484375 C-22.15136786 408.80936731 -22.08240601 404.40491806 -22 400 C-22.72735352 400.01160156 -23.45470703 400.02320313 -24.20410156 400.03515625 C-41.10231375 400.19250575 -55.68087611 393.97100964 -67.91821289 382.34301758 C-76.70569259 373.51038898 -81.47400965 363.74321249 -85 352 C-85.18248291 351.40638672 -85.36496582 350.81277344 -85.55297852 350.20117188 C-86.13185075 347.35075569 -86.09408755 344.65605424 -86.0625 341.75 C-86.05347656 340.67234375 -86.04445312 339.5946875 -86.03515625 338.484375 C-86.02355469 337.66453125 -86.01195312 336.8446875 -86 336 C-87.11971191 336.02094727 -88.23942383 336.04189453 -89.39306641 336.06347656 C-93.56383377 336.13610426 -97.73454568 336.18188211 -101.90576172 336.21972656 C-103.70794081 336.23979033 -105.51005521 336.26704813 -107.31201172 336.30175781 C-109.90869136 336.35050829 -112.50450729 336.37302082 -115.1015625 336.390625 C-116.30191635 336.42159271 -116.30191635 336.42159271 -117.52651978 336.45318604 C-122.83916147 336.45529705 -125.76422625 335.48340331 -130 332 C-133.62833663 328.18069828 -134.31000458 325.11720994 -134.5 320 C-134.31000458 314.88279006 -133.62833663 311.81930172 -130 308 C-124.94357099 303.84170859 -121.36258981 303.44784789 -115.1015625 303.609375 C-114.26660248 303.61503479 -113.43164246 303.62069458 -112.57138062 303.62652588 C-109.92198734 303.64879777 -107.27397984 303.69897477 -104.625 303.75 C-102.82163421 303.77007698 -101.01824708 303.78832565 -99.21484375 303.8046875 C-94.80894114 303.84522018 -90.40600924 303.92352154 -86 304 C-86 293.44 -86 282.88 -86 272 C-88.67351562 272.04640625 -91.34703125 272.0928125 -94.1015625 272.140625 C-96.70294295 272.17185741 -99.30430217 272.19612414 -101.90576172 272.21972656 C-103.70794081 272.23979033 -105.51005521 272.26704813 -107.31201172 272.30175781 C-109.90869136 272.35050829 -112.50450729 272.37302082 -115.1015625 272.390625 C-116.30191635 272.42159271 -116.30191635 272.42159271 -117.52651978 272.45318604 C-122.83916147 272.45529705 -125.76422625 271.48340331 -130 268 C-133.62833663 264.18069828 -134.31000458 261.11720994 -134.5 256 C-134.31000458 250.88279006 -133.62833663 247.81930172 -130 244 C-124.94357099 239.84170859 -121.36258981 239.44784789 -115.1015625 239.609375 C-114.26660248 239.61503479 -113.43164246 239.62069458 -112.57138062 239.62652588 C-109.92198734 239.64879777 -107.27397984 239.69897477 -104.625 239.75 C-102.82163421 239.77007698 -101.01824708 239.78832565 -99.21484375 239.8046875 C-94.80894114 239.84522018 -90.40600924 239.92352154 -86 240 C-86 229.44 -86 218.88 -86 208 C-88.67351562 208.04640625 -91.34703125 208.0928125 -94.1015625 208.140625 C-96.70294295 208.17185741 -99.30430217 208.19612414 -101.90576172 208.21972656 C-103.70794081 208.23979033 -105.51005521 208.26704813 -107.31201172 208.30175781 C-109.90869136 208.35050829 -112.50450729 208.37302082 -115.1015625 208.390625 C-116.30191635 208.42159271 -116.30191635 208.42159271 -117.52651978 208.45318604 C-122.83916147 208.45529705 -125.76422625 207.48340331 -130 204 C-133.62833663 200.18069828 -134.31000458 197.11720994 -134.5 192 C-134.31000458 186.88279006 -133.62833663 183.81930172 -130 180 C-124.94357099 175.84170859 -121.36258981 175.44784789 -115.1015625 175.609375 C-114.26660248 175.61503479 -113.43164246 175.62069458 -112.57138062 175.62652588 C-109.92198734 175.64879777 -107.27397984 175.69897477 -104.625 175.75 C-102.82163421 175.77007698 -101.01824708 175.78832565 -99.21484375 175.8046875 C-94.80894114 175.84522018 -90.40600924 175.92352154 -86 176 C-86 165.44 -86 154.88 -86 144 C-88.67351562 144.04640625 -91.34703125 144.0928125 -94.1015625 144.140625 C-96.70294295 144.17185741 -99.30430217 144.19612414 -101.90576172 144.21972656 C-103.70794081 144.23979033 -105.51005521 144.26704813 -107.31201172 144.30175781 C-109.90869136 144.35050829 -112.50450729 144.37302082 -115.1015625 144.390625 C-116.30191635 144.42159271 -116.30191635 144.42159271 -117.52651978 144.45318604 C-122.83916147 144.45529705 -125.76422625 143.48340331 -130 140 C-133.62833663 136.18069828 -134.31000458 133.11720994 -134.5 128 C-134.31000458 122.88279006 -133.62833663 119.81930172 -130 116 C-124.94357099 111.84170859 -121.36258981 111.44784789 -115.1015625 111.609375 C-114.26660248 111.61503479 -113.43164246 111.62069458 -112.57138062 111.62652588 C-109.92198734 111.64879777 -107.27397984 111.69897477 -104.625 111.75 C-102.82163421 111.77007698 -101.01824708 111.78832565 -99.21484375 111.8046875 C-94.80936731 111.84863214 -90.40491806 111.91759399 -86 112 C-86.02936646 110.81591553 -86.02936646 110.81591553 -86.05932617 109.60791016 C-86.31507816 91.90554206 -79.06697783 77.38099365 -66.87109375 64.8046875 C-56.58579029 55.12656653 -42.06557857 47.78189589 -27.75 47.9375 C-26.13351563 47.95103516 -26.13351563 47.95103516 -24.484375 47.96484375 C-23.66453125 47.97644531 -22.8446875 47.98804688 -22 48 C-22.0314209 46.32043213 -22.0314209 46.32043213 -22.06347656 44.60693359 C-22.13610426 40.43616623 -22.18188211 36.26545432 -22.21972656 32.09423828 C-22.23979033 30.29205919 -22.26704813 28.48994479 -22.30175781 26.68798828 C-22.35050829 24.09130864 -22.37302082 21.49549271 -22.390625 18.8984375 C-22.41127014 18.0982016 -22.43191528 17.2979657 -22.45318604 16.47348022 C-22.45529705 11.16083853 -21.48340331 8.23577375 -18 4 C-12.72867143 -1.00776214 -6.89190982 -0.92775709 0 0 Z M-46.375 91.25 C-53.27348222 100.08318404 -54.15355217 110.46315157 -54.13371277 121.27166748 C-54.13597833 122.18460296 -54.13824388 123.09753844 -54.14057809 124.03813863 C-54.14689007 127.08631114 -54.14609053 130.13443887 -54.14526367 133.18261719 C-54.14825693 135.37267107 -54.15165984 137.56272443 -54.15544128 139.7527771 C-54.16426893 145.69506324 -54.16661889 151.63733497 -54.16725707 157.57962704 C-54.16796832 161.29461504 -54.17010406 165.00959939 -54.17275429 168.72458649 C-54.18152674 181.02311539 -54.18617451 193.32163551 -54.18542381 205.62016758 C-54.18538386 206.28240681 -54.1853439 206.94464604 -54.18530273 207.62695312 C-54.18526185 208.29000691 -54.18522097 208.95306069 -54.18517885 209.63620701 C-54.18477262 220.37571282 -54.19433767 231.11518353 -54.2084411 241.8546792 C-54.22282909 252.89856793 -54.2295271 263.94243873 -54.22884732 274.98633695 C-54.22859271 281.17992045 -54.23142369 287.37346423 -54.24202538 293.56703949 C-54.25172849 299.39469985 -54.25177033 305.22228269 -54.24450874 311.04994583 C-54.24346563 313.18358346 -54.24580949 315.31722597 -54.2518692 317.45085526 C-54.66199742 339.69907509 -54.66199742 339.69907509 -44.40234375 358.81640625 C-35.61477725 367.10538741 -24.25988716 368.15487933 -12.72833252 368.13371277 C-11.81539704 368.13597833 -10.90246156 368.13824388 -9.96186137 368.14057809 C-6.91368886 368.14689007 -3.86556113 368.14609053 -0.81738281 368.14526367 C1.37267107 368.14825693 3.56272443 368.15165984 5.7527771 368.15544128 C11.69506324 368.16426893 17.63733497 368.16661889 23.57962704 368.16725707 C27.29461504 368.16796832 31.00959939 368.17010406 34.72458649 368.17275429 C47.02311539 368.18152674 59.32163551 368.18617451 71.62016758 368.18542381 C72.28240681 368.18538386 72.94464604 368.1853439 73.62695312 368.18530273 C74.29000691 368.18526185 74.95306069 368.18522097 75.63620701 368.18517885 C86.37571282 368.18477262 97.11518353 368.19433767 107.8546792 368.2084411 C118.89856793 368.22282909 129.94243873 368.2295271 140.98633695 368.22884732 C147.17992045 368.22859271 153.37346423 368.23142369 159.56703949 368.24202538 C165.39469985 368.25172849 171.22228269 368.25177033 177.04994583 368.24450874 C179.18358346 368.24346563 181.31722597 368.24580949 183.45085526 368.2518692 C205.69907509 368.66199742 205.69907509 368.66199742 224.81640625 358.40234375 C233.10538741 349.61477725 234.15487933 338.25988716 234.13371277 326.72833252 C234.13597833 325.81539704 234.13824388 324.90246156 234.14057809 323.96186137 C234.14689007 320.91368886 234.14609053 317.86556113 234.14526367 314.81738281 C234.14825693 312.62732893 234.15165984 310.43727557 234.15544128 308.2472229 C234.16426893 302.30493676 234.16661889 296.36266503 234.16725707 290.42037296 C234.16796832 286.70538496 234.17010406 282.99040061 234.17275429 279.27541351 C234.18152674 266.97688461 234.18617451 254.67836449 234.18542381 242.37983242 C234.18538386 241.71759319 234.1853439 241.05535396 234.18530273 240.37304688 C234.18526185 239.70999309 234.18522097 239.04693931 234.18517885 238.36379299 C234.18477262 227.62428718 234.19433767 216.88481647 234.2084411 206.1453208 C234.22282909 195.10143207 234.2295271 184.05756127 234.22884732 173.01366305 C234.22859271 166.82007955 234.23142369 160.62653577 234.24202538 154.43296051 C234.25172849 148.60530015 234.25177033 142.77771731 234.24450874 136.95005417 C234.24346563 134.81641654 234.24580949 132.68277403 234.2518692 130.54914474 C234.66199742 108.30092491 234.66199742 108.30092491 224.40234375 89.18359375 C215.61477725 80.89461259 204.25988716 79.84512067 192.72833252 79.86628723 C191.81539704 79.86402167 190.90246156 79.86175612 189.96186137 79.85942191 C186.91368886 79.85310993 183.86556113 79.85390947 180.81738281 79.85473633 C178.62732893 79.85174307 176.43727557 79.84834016 174.2472229 79.84455872 C168.30493676 79.83573107 162.36266503 79.83338111 156.42037296 79.83274293 C152.70538496 79.83203168 148.99040061 79.82989594 145.27541351 79.82724571 C132.97688461 79.81847326 120.67836449 79.81382549 108.37983242 79.81457619 C107.71759319 79.81461614 107.05535396 79.8146561 106.37304688 79.81469727 C105.70999309 79.81473815 105.04693931 79.81477903 104.36379299 79.81482115 C93.62428718 79.81522738 82.88481647 79.80566233 72.1453208 79.7915589 C61.10143207 79.77717091 50.05756127 79.7704729 39.01366305 79.77115268 C32.82007955 79.77140729 26.62653577 79.76857631 20.43296051 79.75797462 C14.60530015 79.74827151 8.77771731 79.74822967 2.95005417 79.75549126 C0.81641654 79.75653437 -1.31722597 79.75419051 -3.45085526 79.7481308 C-26.96032265 79.27290498 -26.96032265 79.27290498 -46.375 91.25 Z " fill="#000000" transform="translate(166,32)"/>
<path d="M0 0 C1.25090675 -0.00935994 1.25090675 -0.00935994 2.52708435 -0.01890898 C5.31391906 -0.03482936 8.09987796 -0.0222386 10.88671875 -0.00964355 C12.88770049 -0.0150651 14.88867824 -0.02218794 16.88964844 -0.03088379 C22.3193745 -0.04911614 27.74879647 -0.04204986 33.17852783 -0.02936745 C38.86121438 -0.0192394 44.54387493 -0.02863259 50.2265625 -0.03491211 C59.76957879 -0.04218906 69.31247126 -0.03259948 78.85546875 -0.0135498 C89.88799463 0.00821896 100.92022482 0.00116763 111.95274353 -0.02085543 C121.42551708 -0.03900799 130.89820162 -0.04156843 140.37098694 -0.03110075 C146.02846117 -0.02486506 151.68579642 -0.02403236 157.34326172 -0.0372467 C162.66212809 -0.0488024 167.98061328 -0.04078433 173.29943848 -0.01766968 C175.25133633 -0.01238113 177.20326628 -0.01389885 179.15515137 -0.02272034 C181.82001297 -0.0336536 184.48365366 -0.01993932 187.1484375 0 C188.30671303 -0.01338433 188.30671303 -0.01338433 189.48838806 -0.02703905 C194.68395126 0.04835109 197.64204357 1.12461816 201.57421875 4.50793457 C205.55572452 9.13534043 206.1505 13.01901662 206.08215332 18.93371582 C206.08839328 19.76765366 206.09463325 20.60159149 206.1010623 21.46080017 C206.11698268 24.24763488 206.10439192 27.03359379 206.09179688 29.82043457 C206.09721842 31.82141631 206.10434126 33.82239406 206.11303711 35.82336426 C206.13126947 41.25309032 206.12420318 46.68251229 206.11152077 52.11224365 C206.10139272 57.7949302 206.11078591 63.47759075 206.11706543 69.16027832 C206.12434238 78.70329461 206.1147528 88.24618708 206.09570312 97.78918457 C206.07393436 108.82171045 206.08098569 119.85394064 206.10300875 130.88645935 C206.12116131 140.3592329 206.12372175 149.83191744 206.11325407 159.30470276 C206.10701838 164.96217699 206.10618568 170.61951224 206.11940002 176.27697754 C206.13095572 181.59584391 206.12293765 186.9143291 206.099823 192.2331543 C206.09453445 194.18505216 206.09605217 196.1369821 206.10487366 198.08886719 C206.11580692 200.75372879 206.10209264 203.41736948 206.08215332 206.08215332 C206.09107621 206.85433701 206.09999909 207.62652069 206.10919237 208.42210388 C206.03380223 213.61766708 204.95753516 216.57575939 201.57421875 220.50793457 C196.94681289 224.48944034 193.0631367 225.08421582 187.1484375 225.01586914 C186.31449966 225.0221091 185.48056183 225.02834907 184.62135315 225.03477812 C181.83451844 225.0506985 179.04855954 225.03810774 176.26171875 225.0255127 C174.26073701 225.03093424 172.25975926 225.03805708 170.25878906 225.04675293 C164.829063 225.06498529 159.39964103 225.057919 153.96990967 225.04523659 C148.28722312 225.03510854 142.60456257 225.04450173 136.921875 225.05078125 C127.37885871 225.0580582 117.83596624 225.04846862 108.29296875 225.02941895 C97.26044287 225.00765018 86.22821268 225.01470151 75.19569397 225.03672457 C65.72292042 225.05487713 56.25023588 225.05743757 46.77745056 225.04696989 C41.11997633 225.0407342 35.46264108 225.0399015 29.80517578 225.05311584 C24.48630941 225.06467154 19.16782422 225.05665347 13.84899902 225.03353882 C11.89710117 225.02825027 9.94517122 225.02976799 7.99328613 225.03858948 C5.32842453 225.04952274 2.66478384 225.03580846 0 225.01586914 C-0.77218369 225.02479203 -1.54436737 225.03371491 -2.33995056 225.04290819 C-7.53551376 224.96751805 -10.49360607 223.89125098 -14.42578125 220.50793457 C-18.40728702 215.88052871 -19.0020625 211.99685252 -18.93371582 206.08215332 C-18.93995578 205.24821548 -18.94619575 204.41427765 -18.9526248 203.55506897 C-18.96854518 200.76823426 -18.95595442 197.98227536 -18.94335938 195.19543457 C-18.94878092 193.19445283 -18.95590376 191.19347508 -18.96459961 189.19250488 C-18.98283197 183.76277883 -18.97576568 178.33335685 -18.96308327 172.90362549 C-18.95295522 167.22093894 -18.96234841 161.5382784 -18.96862793 155.85559082 C-18.97590488 146.31257453 -18.9663153 136.76968206 -18.94726562 127.22668457 C-18.92549686 116.19415869 -18.93254819 105.1619285 -18.95457125 94.12940979 C-18.97272381 84.65663624 -18.97528425 75.1839517 -18.96481657 65.71116638 C-18.95858088 60.05369215 -18.95774818 54.3963569 -18.97096252 48.7388916 C-18.98251822 43.42002523 -18.97450015 38.10154004 -18.9513855 32.78271484 C-18.94609695 30.83081699 -18.94761467 28.87888704 -18.95643616 26.92700195 C-18.96736942 24.26214035 -18.95365514 21.59849966 -18.93371582 18.93371582 C-18.94263871 18.16153214 -18.95156159 17.38934845 -18.96075487 16.59376526 C-18.88536473 11.39820206 -17.80909766 8.44010975 -14.42578125 4.50793457 C-9.79837539 0.5264288 -5.9146992 -0.06834668 0 0 Z M13.57421875 32.50793457 C13.57421875 85.30793457 13.57421875 138.10793457 13.57421875 192.50793457 C66.37421875 192.50793457 119.17421875 192.50793457 173.57421875 192.50793457 C173.57421875 139.70793457 173.57421875 86.90793457 173.57421875 32.50793457 C120.77421875 32.50793457 67.97421875 32.50793457 13.57421875 32.50793457 Z " fill="#000000" transform="translate(162.42578125,143.4920654296875)"/>
</svg>
